<?xml version="1.0" encoding="UTF-8"?>
<!DOCTYPE svg PUBLIC "-//W3C//DTD SVG 1.1//EN" "http://www.w3.org/Graphics/SVG/1.1/DTD/svg11.dtd">
<!-- Creator: CorelDRAW 2021.5 -->
<svg xmlns="http://www.w3.org/2000/svg" xml:space="preserve" width="34.1629mm" height="15.5345mm" version="1.1" style="shape-rendering:geometricPrecision; text-rendering:geometricPrecision; image-rendering:optimizeQuality; fill-rule:evenodd; clip-rule:evenodd"
viewBox="0 0 1010.52 459.5"
 xmlns:xlink="http://www.w3.org/1999/xlink"
 xmlns:xodm="http://www.corel.com/coreldraw/odm/2003">
 <defs>
  <style type="text/css">
   <![CDATA[
    .fil1 {fill:none}
    .fil0 {fill:#FEFEFE;fill-rule:nonzero}
   ]]>
  </style>
 </defs>
 <g id="Layer_x0020_1">
  <metadata id="CorelCorpID_0Corel-Layer"/>
  <path class="fil0" d="M103.79 312.76l-57.59 0c-2.05,0 -3.71,1.66 -3.71,3.71 0,2.04 1.66,3.71 3.71,3.71l25.09 0 0 65.31c0,2.05 1.66,3.71 3.71,3.71 2.05,0 3.71,-1.66 3.71,-3.71l0 -65.31 25.09 0c2.05,0 3.71,-1.66 3.71,-3.71 0,-2.05 -1.66,-3.71 -3.71,-3.71z"/>
  <path id="_1" class="fil0" d="M232.67 366.34c11.29,-2.97 19.63,-13.65 19.63,-26.36 0,-15.04 -11.68,-27.21 -26.1,-27.21l-26.02 0c-2.05,0 -3.71,1.66 -3.71,3.71l0 69.02c0,2.05 1.66,3.71 3.71,3.71 2.04,0 3.71,-1.66 3.71,-3.71l0 -18.3 19.66 0 17.8 20.77c1.35,1.54 3.69,1.7 5.23,0.37 1.54,-1.35 1.7,-3.69 0.37,-5.23l-14.28 -16.75zm-28.77 -46.16l22.31 0c10.33,0 18.69,8.86 18.69,19.8 0,10.94 -8.36,19.8 -18.69,19.8l-22.31 0 0 -39.6z"/>
  <path id="_2" class="fil0" d="M404.75 384.02l-29.01 -69c-0.58,-1.37 -1.91,-2.32 -3.4,-2.32 -1.49,0 -2.82,0.95 -3.4,2.32l-29.01 69c-0.81,1.87 0.06,4.06 1.95,4.87 1.87,0.81 4.06,-0.06 4.87,-1.95l7.7 -18.36 35.78 0 7.7 18.36c0.6,1.41 1.97,2.26 3.42,2.26 0.48,0 0.98,-0.1 1.45,-0.31 1.89,-0.81 2.76,-2.99 1.95,-4.87l0 0zm-47.19 -22.85l14.78 -35.28 14.78 35.28 -29.57 0z"/>
  <path id="_3" class="fil0" d="M540.33 312.76c-1.45,0 -2.82,0.85 -3.42,2.26l-25.59 61.05 -25.59 -61.05c-0.81,-1.89 -2.99,-2.76 -4.87,-1.95 -1.89,0.81 -2.76,2.99 -1.95,4.87l29.01 69c0.58,1.37 1.91,2.32 3.4,2.32 1.48,0 2.82,-0.95 3.4,-2.32l29.01 -69c0.81,-1.87 -0.06,-4.06 -1.95,-4.87 -0.46,-0.21 -0.96,-0.31 -1.45,-0.31l0 0z"/>
  <path id="_4" class="fil0" d="M679.34 381.78l-38.83 0 0 -27.1 30.72 0c2.05,0 3.71,-1.66 3.71,-3.71 0,-2.04 -1.66,-3.7 -3.71,-3.7l-30.72 0 0 -27.1 38.83 0c2.04,0 3.71,-1.66 3.71,-3.71 0,-2.05 -1.66,-3.71 -3.71,-3.71l-42.54 0c-2.05,0 -3.71,1.66 -3.71,3.71l0 69.02c0,2.05 1.66,3.71 3.71,3.71l42.54 0c2.04,0 3.71,-1.66 3.71,-3.71 0,-2.04 -1.66,-3.71 -3.71,-3.71z"/>
  <path id="_5" class="fil0" d="M819.48 381.78l-37.67 0 0 -65.31c0,-2.05 -1.66,-3.71 -3.71,-3.71 -2.05,0 -3.71,1.66 -3.71,3.71l0 69.02c0,2.05 1.66,3.71 3.71,3.71l41.38 0c2.05,0 3.71,-1.66 3.71,-3.71 0,-2.04 -1.66,-3.71 -3.71,-3.71z"/>
  <path id="_6" class="fil0" d="M936.68 388.79c7.18,0.93 15.73,0.31 22.47,-2.82 7.57,-3.55 12.02,-9.76 12.24,-17.51 0.19,-7.97 -3.03,-13.88 -9.98,-17.2 -5.46,-2.61 -12.47,-3.3 -19.24,-3.98 -6.16,-0.6 -12.51,-1.22 -16.79,-3.28 -4.13,-1.99 -5.89,-5.08 -5.75,-10.29 0.13,-5.11 3.4,-8.84 8.01,-11 4.88,-2.28 11.56,-3.09 18.32,-2.22 7.1,0.93 13.72,3.57 18.62,7.47 1.6,1.25 3.92,0.98 5.19,-0.62 1.27,-1.62 0.98,-3.94 -0.62,-5.21 -5.93,-4.71 -13.84,-7.89 -22.27,-8.97 -8.24,-1.04 -16.17,-0.04 -22.39,2.86 -7.59,3.53 -12.06,9.75 -12.28,17.51 -0.19,7.95 3.03,13.86 9.98,17.18 5.46,2.61 12.47,3.3 19.24,3.98 6.16,0.6 12.51,1.22 16.79,3.28 4.13,1.99 5.89,5.09 5.75,10.31 -0.15,6.18 -4.48,9.34 -7.97,10.98 -4.88,2.28 -11.58,3.07 -18.37,2.18 -7.14,-0.91 -13.74,-3.55 -18.61,-7.41 -1.6,-1.27 -3.92,-1 -5.19,0.6 -1.25,1.62 -0.98,3.94 0.62,5.21 5.89,4.69 13.78,7.88 22.23,8.96l0 0z"/>
  <path class="fil0" d="M201.29 51.8l0 198.1 -45.08 0 -0.12 -133.73 -17.91 133.73 -31.56 0 -18.91 -130.73 -0.13 130.73 -45.08 0 0 -198.1 66.58 0c1.88,11.98 3.92,26.09 6.13,42.2l7.3 50.3 11.73 -92.5 67.03 0z"/>
  <path id="_1_0" class="fil0" d="M339.49 167.93c0,19.91 -0.46,33.98 -1.42,42.24 -0.92,8.31 -3.84,15.86 -8.76,22.71 -4.92,6.84 -11.6,12.1 -19.99,15.78 -8.39,3.67 -18.16,5.51 -29.3,5.51 -10.6,0 -20.08,-1.75 -28.51,-5.22 -8.43,-3.46 -15.24,-8.64 -20.33,-15.57 -5.14,-6.93 -8.18,-14.49 -9.18,-22.62 -0.96,-8.18 -1.46,-22.46 -1.46,-42.83l0 -33.9c0,-19.91 0.46,-33.98 1.42,-42.24 0.92,-8.31 3.84,-15.86 8.76,-22.71 4.93,-6.84 11.6,-12.1 20,-15.78 8.39,-3.67 18.16,-5.51 29.3,-5.51 10.6,0 20.08,1.75 28.51,5.22 8.43,3.46 15.23,8.64 20.33,15.57 5.13,6.93 8.18,14.49 9.18,22.62 0.96,8.18 1.46,22.46 1.46,42.83l0 33.9zm-51.59 -65.07c0,-9.18 -0.5,-15.07 -1.5,-17.66 -1,-2.54 -3.05,-3.84 -6.14,-3.84 -2.63,0 -4.63,1.04 -6.05,3.13 -1.38,2.05 -2.09,8.18 -2.09,18.37l0 92.46c0,11.48 0.46,18.57 1.38,21.24 0.92,2.71 3.05,4.05 6.39,4.05 3.43,0 5.63,-1.54 6.6,-4.63 0.96,-3.09 1.42,-10.48 1.42,-22.12l0 -91z"/>
  <path id="_2_1" class="fil0" d="M467.8 111.91l-47.83 0 0 -14.65c0,-6.84 -0.63,-11.23 -1.84,-13.1 -1.21,-1.88 -3.21,-2.8 -6.05,-2.8 -3.09,0 -5.42,1.25 -7.01,3.8 -1.59,2.51 -2.38,6.3 -2.38,11.44 0,6.59 0.92,11.56 2.71,14.9 1.75,3.3 6.6,7.35 14.57,12.11 22.83,13.65 37.23,24.88 43.16,33.6 5.97,8.72 8.93,22.79 8.93,42.16 0,14.11 -1.67,24.5 -4.97,31.22 -3.3,6.68 -9.64,12.27 -19.12,16.78 -9.43,4.55 -20.41,6.8 -32.98,6.8 -13.78,0 -25.5,-2.63 -35.27,-7.85 -9.73,-5.21 -16.07,-11.85 -19.12,-19.91 -3.01,-8.1 -4.51,-19.58 -4.51,-34.39l0 -12.98 47.83 0 0 24.08c0,7.43 0.67,12.19 2.01,14.32 1.33,2.13 3.72,3.17 7.14,3.17 3.42,0 5.97,-1.34 7.64,-4.05 1.67,-2.67 2.51,-6.68 2.51,-11.94 0,-11.65 -1.59,-19.28 -4.76,-22.83 -3.3,-3.59 -11.31,-9.6 -24.08,-18.03 -12.77,-8.47 -21.21,-14.65 -25.38,-18.49 -4.13,-3.84 -7.6,-9.14 -10.31,-15.9 -2.71,-6.76 -4.09,-15.4 -4.09,-25.92 0,-15.15 1.92,-26.25 5.8,-33.27 3.88,-7.01 10.1,-12.48 18.74,-16.44 8.64,-3.97 19.03,-5.93 31.27,-5.93 13.36,0 24.71,2.17 34.14,6.47 9.39,4.34 15.61,9.77 18.66,16.36 3.05,6.55 4.59,17.7 4.59,33.43l0 7.84z"/>
  <path id="_3_2" class="fil0" d="M610.59 51.8l-26.09 198.1 -78.01 0 -29.89 -198.1 54.35 0c6.13,54.64 10.6,100.85 13.4,138.62 2.76,-38.19 5.59,-72.09 8.47,-101.68l3.42 -36.94 54.35 0z"/>
  <polygon id="_4_3" class="fil0" points="671.07,51.8 671.07,249.9 619.48,249.9 619.48,51.8 "/>
  <polygon id="_5_4" class="fil0" points="743.24,51.8 743.24,210.33 774.29,210.33 774.29,249.9 691.65,249.9 691.65,51.8 "/>
  <polygon id="_6_5" class="fil0" points="838.49,51.8 838.49,210.33 869.55,210.33 869.55,249.9 786.9,249.9 786.9,51.8 "/>
  <polygon id="_7" class="fil0" points="882.15,51.8 968.05,51.8 968.05,91.37 933.74,91.37 933.74,129.19 965.8,129.19 965.8,166.76 933.74,166.76 933.74,210.33 971.56,210.33 971.56,249.9 882.15,249.9 "/>
  <rect class="fil1" x="-0" y="-0" width="1010.52" height="459.5"/>
 </g>
</svg>
