<?xml version="1.0" encoding="UTF-8"?>
<!DOCTYPE svg PUBLIC "-//W3C//DTD SVG 1.1//EN" "http://www.w3.org/Graphics/SVG/1.1/DTD/svg11.dtd">
<!-- Creator: CorelDRAW 2021.5 -->
<svg xmlns="http://www.w3.org/2000/svg" xml:space="preserve" width="315.701mm" height="231.944mm" version="1.1" style="shape-rendering:geometricPrecision; text-rendering:geometricPrecision; image-rendering:optimizeQuality; fill-rule:evenodd; clip-rule:evenodd"
viewBox="0 0 4695.69 3449.9"
 xmlns:xlink="http://www.w3.org/1999/xlink"
 xmlns:xodm="http://www.corel.com/coreldraw/odm/2003">
 <defs>
  <style type="text/css">
   <![CDATA[
    .fil0 {fill:none}
    .fil1 {fill:#01AAA5;fill-rule:nonzero}
   ]]>
  </style>
 </defs>
 <g id="Layer_x0020_1">
  <metadata id="CorelCorpID_0Corel-Layer"/>
  <rect class="fil0" x="-0" y="-0" width="4695.69" height="3449.9"/>
  <path class="fil1" d="M4489.72 1888.59c76,189.3 63.77,691.65 -208.08,741.83 -271.86,50.18 -1154.91,21.02 -1341.99,-6.35 -187.09,-27.37 -810.62,-57.49 -962.62,207.06 -152,264.56 -369.78,393.41 -653.33,386.57 -283.55,-6.84 -476.48,-117.45 -578.79,-331.83 -102.31,-214.38 -86.24,-423.07 48.23,-626.04 225.97,-341.11 -1076.26,-609.33 -460.4,-964.72 1245.9,-491.04 963.91,-965.26 1414.9,-1057.63 207.34,-70.63 1387.26,557.42 1515.75,587.04 1149.33,264.93 631.9,497.61 604.55,821.93 11.69,159.65 545.77,52.86 621.78,242.15z"/>
 </g>
</svg>
